<svg version="1.1"
	 xmlns="http://www.w3.org/2000/svg" xmlns:xlink="http://www.w3.org/1999/xlink" xmlns:a="http://ns.adobe.com/AdobeSVGViewerExtensions/3.0/"
	 x="0px" y="0px" width="20px" height="19.4px" viewBox="0 0 20 19.4" enable-background="new 0 0 20 19.4" xml:space="preserve">
<defs>
</defs>
<path d="M18,0H2C0.9,0,0,0.9,0,2v16.8c0,0.5,0.5,0.8,0.9,0.5l4.6-3.2C5.7,16,5.8,16,5.9,16H18c1.1,0,2-0.9,2-2V2C20,0.9,19.1,0,18,0
	z M11,13.5H9V6h2V13.5z M10,4.5c-0.6,0-1-0.4-1-1s0.4-1,1-1s1,0.4,1,1S10.6,4.5,10,4.5z"/>
</svg>
