<svg version="1.1"
	 xmlns="http://www.w3.org/2000/svg" xmlns:xlink="http://www.w3.org/1999/xlink" xmlns:a="http://ns.adobe.com/AdobeSVGViewerExtensions/3.0/"
	 x="0px" y="0px" width="18px" height="18px" viewBox="0 0 18 18" enable-background="new 0 0 18 18" xml:space="preserve">
<defs>
</defs>
<g>
	<path d="M6.2,7.2H1c-0.6,0-1-0.4-1-1V1c0-0.6,0.4-1,1-1h5.2c0.6,0,1,0.4,1,1v5.2C7.2,6.8,6.8,7.2,6.2,7.2z"/>
	<path d="M6.2,18H1c-0.6,0-1-0.4-1-1v-5.2c0-0.6,0.4-1,1-1h5.2c0.6,0,1,0.4,1,1V17C7.2,17.6,6.8,18,6.2,18z"/>
	<path d="M17,18h-5.2c-0.6,0-1-0.4-1-1v-5.2c0-0.6,0.4-1,1-1H17c0.6,0,1,0.4,1,1V17C18,17.6,17.6,18,17,18z"/>
	<path d="M17,7.2h-5.2c-0.6,0-1-0.4-1-1V1c0-0.6,0.4-1,1-1H17c0.6,0,1,0.4,1,1v5.2C18,6.8,17.6,7.2,17,7.2z"/>
</g>
</svg>
