<?xml version="1.0" encoding="utf-8"?>
<!-- Generator: Adobe Illustrator 18.0.0, SVG Export Plug-In . SVG Version: 6.00 Build 0)  -->
<!DOCTYPE svg PUBLIC "-//W3C//DTD SVG 1.1//EN" "http://www.w3.org/Graphics/SVG/1.1/DTD/svg11.dtd">
<svg version="1.1" id="Layer_1" xmlns="http://www.w3.org/2000/svg" xmlns:xlink="http://www.w3.org/1999/xlink" x="0px" y="0px"
	 viewBox="0 0 256 256" enable-background="new 0 0 256 256" xml:space="preserve">
<g>
	<path fill="#424242" d="M192,111.4L192,111.4c0,26.2-21.2,47.4-47.4,47.4h-55v-15.8c0-6.3-7.1-9.9-12.2-6.3L8.8,185.7
		c-4.3,3.1-4.3,9.4,0,12.5l68.7,49.1c5.1,3.6,12.2,0,12.2-6.3v-18.3h55c61.5,0,111.4-49.9,111.4-111.4v0C256,49.9,206.1,0,144.6,0
		l-23.5,0c-17.7,0-32,14.3-32,32v0c0,17.7,14.3,32,32,32h23.5C170.8,64,192,85.2,192,111.4z"/>
	<path fill="#424242" d="M37.5,64L37.5,64c-17.7,0-32-14.3-32-32v0c0-17.7,14.3-32,32-32h0c17.7,0,32,14.3,32,32v0
		C69.5,49.7,55.2,64,37.5,64z"/>
</g>
</svg>
