<?xml version="1.0" encoding="utf-8"?>
<!-- Generator: Adobe Illustrator 18.0.0, SVG Export Plug-In . SVG Version: 6.00 Build 0)  -->
<!DOCTYPE svg PUBLIC "-//W3C//DTD SVG 1.1//EN" "http://www.w3.org/Graphics/SVG/1.1/DTD/svg11.dtd">
<svg version="1.1" id="Layer_1" xmlns="http://www.w3.org/2000/svg" xmlns:xlink="http://www.w3.org/1999/xlink" x="0px" y="0px"
	 viewBox="0 0 1024 1024" enable-background="new 0 0 1024 1024" xml:space="preserve">
<path fill="#BBBBBB" d="M917.5,193.4l-86.9-86.9c-12-12-31.4-12-43.4,0L533.7,360c-12,12-31.4,12-43.4,0L236.8,106.5
	c-12-12-31.4-12-43.4,0l-86.9,86.9c-12,12-12,31.4,0,43.4L360,490.3c12,12,12,31.4,0,43.4L106.5,787.2c-12,12-12,31.4,0,43.4
	l86.9,86.9c12,12,31.4,12,43.4,0L490.3,664c12-12,31.4-12,43.4,0l253.5,253.5c12,12,31.4,12,43.4,0l86.9-86.9c12-12,12-31.4,0-43.4
	L664,533.7c-12-12-12-31.4,0-43.4l253.5-253.5C929.5,224.8,929.5,205.4,917.5,193.4z"/>
</svg>
