<svg version="1.1"
	 xmlns="http://www.w3.org/2000/svg" xmlns:xlink="http://www.w3.org/1999/xlink" xmlns:a="http://ns.adobe.com/AdobeSVGViewerExtensions/3.0/"
	 x="0px" y="0px" width="24px" height="24px" viewBox="0 0 24 24" enable-background="new 0 0 24 24" xml:space="preserve">
<defs>
</defs>
<g>
	<path d="M14.3,0h-1.2c-0.6,0-1,0.4-1,1s0.4,1,1,1h1.2C18.6,2,22,5.4,22,9.7s-3.4,7.7-7.7,7.7H3.8l3.2-3.2l-1.4-1.4L0,18.3L5.7,24
		l1.4-1.4l-3.2-3.2h10.5c5.3,0,9.7-4.3,9.7-9.7S19.7,0,14.3,0z"/>
	<circle cx="9" cy="1" r="1"/>
	<circle cx="5" cy="1" r="1"/>
	<circle cx="1" cy="1" r="1"/>
</g>
</svg>