<svg version="1.1"
	 xmlns="http://www.w3.org/2000/svg" xmlns:xlink="http://www.w3.org/1999/xlink" xmlns:a="http://ns.adobe.com/AdobeSVGViewerExtensions/3.0/"
	 x="0px" y="0px" width="16px" height="20px" viewBox="0 0 16 20" enable-background="new 0 0 16 20" xml:space="preserve">
<defs>
</defs>
<path d="M10.3,0H0.4C0.2,0,0,0.2,0,0.4v19.2C0,19.8,0.2,20,0.4,20h15.2c0.2,0,0.4-0.2,0.4-0.4V5.7c0-0.1,0-0.2-0.1-0.3l-5.3-5.3
	C10.5,0,10.4,0,10.3,0z M12.8,17.2H3.2c-0.2,0-0.4-0.2-0.4-0.4v-2c0-0.2,0.2-0.4,0.4-0.4h2c0.2,0,0.4-0.2,0.4-0.4v-2
	c0-0.2-0.2-0.4-0.4-0.4h-2c-0.2,0-0.4-0.2-0.4-0.4v-2C2.8,9,3,8.8,3.2,8.8h2c0.2,0,0.4-0.2,0.4-0.4v-2C5.6,6.2,5.4,6,5.2,6h-2
	C3,6,2.8,5.8,2.8,5.6V3.2C2.8,3,3,2.8,3.2,2.8h6c0.2,0,0.4,0.2,0.4,0.4V6c0,0.2,0.2,0.4,0.4,0.4h2.8c0.2,0,0.4,0.2,0.4,0.4v10
	C13.2,17,13,17.2,12.8,17.2z"/>
</svg>
