<svg version="1.1"
	 xmlns="http://www.w3.org/2000/svg" xmlns:xlink="http://www.w3.org/1999/xlink" xmlns:a="http://ns.adobe.com/AdobeSVGViewerExtensions/3.0/"
	 x="0px" y="0px" width="16px" height="20px" viewBox="0 0 16 20" enable-background="new 0 0 16 20" xml:space="preserve">
<defs>
</defs>
<path d="M10.3,0H0.6C0.3,0,0,0.3,0,0.6v18.8C0,19.7,0.3,20,0.6,20h14.8c0.3,0,0.6-0.3,0.6-0.6V5.7c0-0.2-0.1-0.3-0.2-0.4l-5.1-5.1
	C10.6,0.1,10.5,0,10.3,0z M12.2,16.8H3.8c-0.3,0-0.6-0.3-0.6-0.6v-0.8c0-0.3,0.3-0.6,0.6-0.6h2.5c0.3,0,0.6-0.3,0.6-0.6v-2.4
	c0-0.3-0.3-0.6-0.6-0.6H3.8c-0.3,0-0.6-0.3-0.6-0.6V9.7c0-0.3,0.3-0.6,0.6-0.6h2.5c0.3,0,0.6-0.3,0.6-0.6V6.1c0-0.3-0.3-0.6-0.6-0.6
	H3.8c-0.3,0-0.6-0.3-0.6-0.6V3.8c0-0.3,0.3-0.6,0.6-0.6h4.8c0.3,0,0.6,0.3,0.6,0.6v2.4c0,0.3,0.3,0.6,0.6,0.6h2.4
	c0.3,0,0.6,0.3,0.6,0.6v8.8C12.8,16.5,12.5,16.8,12.2,16.8z"/>
</svg>
