<?xml version="1.0" encoding="utf-8"?>
<!-- Generator: Adobe Illustrator 18.0.0, SVG Export Plug-In . SVG Version: 6.00 Build 0)  -->
<!DOCTYPE svg PUBLIC "-//W3C//DTD SVG 1.1//EN" "http://www.w3.org/Graphics/SVG/1.1/DTD/svg11.dtd">
<svg version="1.1" id="Layer_1" xmlns="http://www.w3.org/2000/svg" xmlns:xlink="http://www.w3.org/1999/xlink" x="0px" y="0px"
	 viewBox="0 0 256 256" enable-background="new 0 0 256 256" xml:space="preserve">
<g>
	<path fill="#BBBBBB" d="M248.3,151H7.7c-4.2,0-7.7-3.4-7.7-7.7v-30.7c0-4.2,3.4-7.7,7.7-7.7h240.6c4.2,0,7.7,3.4,7.7,7.7v30.7
		C256,147.6,252.6,151,248.3,151z"/>
	<path fill="#BBBBBB" d="M248.3,244H7.7c-4.2,0-7.7-3.4-7.7-7.7v-30.7c0-4.2,3.4-7.7,7.7-7.7h240.6c4.2,0,7.7,3.4,7.7,7.7v30.7
		C256,240.6,252.6,244,248.3,244z"/>
	<path fill="#BBBBBB" d="M248.3,58.1H7.7c-4.2,0-7.7-3.4-7.7-7.7V19.7C0,15.4,3.4,12,7.7,12h240.6c4.2,0,7.7,3.4,7.7,7.7v30.7
		C256,54.6,252.6,58.1,248.3,58.1z"/>
</g>
</svg>
