<svg version="1.1"
	 xmlns="http://www.w3.org/2000/svg" xmlns:xlink="http://www.w3.org/1999/xlink" xmlns:a="http://ns.adobe.com/AdobeSVGViewerExtensions/3.0/"
	 x="0px" y="0px" width="20px" height="20px" viewBox="0 0 20 20" enable-background="new 0 0 20 20" xml:space="preserve">
<defs>
</defs>
<g>
	<path d="M10,0.6v3.8C10,4.7,9.7,5,9.4,5H5.6C5.3,5,5,5.3,5,5.6v8.8C5,14.7,5.3,15,5.6,15h8.8c0.3,0,0.6-0.3,0.6-0.6v-3.8
		c0-0.3,0.3-0.6,0.6-0.6h3.8c0.3,0,0.6,0.3,0.6,0.6v8.8c0,0.3-0.3,0.6-0.6,0.6H0.6C0.3,20,0,19.7,0,19.4L0,0.6C0,0.3,0.3,0,0.6,0
		l8.8,0C9.7,0,10,0.3,10,0.6z"/>
	<g>
		<polygon points="16.1,2 9.7,8.2 9.7,10 11.8,10 18,3.7 		"/>
		<path d="M19.6,1.3l-0.9-0.9c-0.2-0.2-0.6-0.2-0.8,0L17,1.3L18.7,3l0.8-0.8C19.8,2,19.8,1.6,19.6,1.3z"/>
	</g>
</g>
</svg>
