<?xml version="1.0" encoding="utf-8"?>
<!-- Generator: Adobe Illustrator 18.0.0, SVG Export Plug-In . SVG Version: 6.00 Build 0)  -->
<!DOCTYPE svg PUBLIC "-//W3C//DTD SVG 1.1//EN" "http://www.w3.org/Graphics/SVG/1.1/DTD/svg11.dtd">
<svg version="1.1" id="Layer_1" xmlns="http://www.w3.org/2000/svg" xmlns:xlink="http://www.w3.org/1999/xlink" x="0px" y="0px"
	 viewBox="0 0 256 256" enable-background="new 0 0 256 256" xml:space="preserve">
<g>
	<path fill="#424242" d="M127.8,7.7v48.6c0,4.2-3.4,7.7-7.7,7.7H71.6c-4.2,0-7.7,3.4-7.7,7.7v112.5c0,4.2,3.4,7.7,7.7,7.7h112.5
		c4.2,0,7.7-3.4,7.7-7.7v-48.6c0-4.2,3.4-7.7,7.7-7.7H248c4.2,0,7.7,3.4,7.7,7.7V248c0,4.2-3.4,7.7-7.7,7.7H7.6
		c-4.2,0-7.7-3.4-7.7-7.7L0,7.7C0,3.4,3.4,0,7.6,0l112.5,0C124.4,0,127.8,3.4,127.8,7.7z"/>
	<g>
		<polygon fill="#424242" points="207.9,25.3 128,105.2 128,128 150.4,128 230.4,47.9 		"/>
		<path fill="#424242" d="M250.2,17.2L238.5,5.4c-3-3-7.9-3-10.9,0l-10.8,10.8l22.6,22.6L250.2,28C253.2,25,253.2,20.2,250.2,17.2z"
			/>
	</g>
</g>
</svg>
