<svg version="1.1"
	 xmlns="http://www.w3.org/2000/svg" xmlns:xlink="http://www.w3.org/1999/xlink" xmlns:a="http://ns.adobe.com/AdobeSVGViewerExtensions/3.0/"
	 x="0px" y="0px" width="24px" height="24px" viewBox="0 0 24 24" enable-background="new 0 0 24 24" xml:space="preserve">
<defs>
</defs>
<g>
	<path d="M18,12v10H2V6h10V4H1C0.4,4,0,4.4,0,5v18c0,0.6,0.4,1,1,1h18c0.6,0,1-0.4,1-1V12H18z"/>
	<g>
		<polygon points="13.4,12 12,12 12,10.6 20.2,2.4 21.6,3.8 		"/>
		<path d="M23,2.4L21.6,1l0.7-0.7c0.4-0.4,1-0.4,1.4,0l0,0c0.4,0.4,0.4,1,0,1.4L23,2.4z"/>
	</g>
</g>
</svg>
