<svg version="1.1"
	 xmlns="http://www.w3.org/2000/svg" xmlns:xlink="http://www.w3.org/1999/xlink" xmlns:a="http://ns.adobe.com/AdobeSVGViewerExtensions/3.0/"
	 x="0px" y="0px" width="20px" height="20px" viewBox="0 0 20 20" enable-background="new 0 0 20 20" xml:space="preserve">
<defs>
</defs>
<path d="M20,2V0.4C20,0.2,19.8,0,19.6,0h-8.2H8.6H0.4C0.2,0,0,0.2,0,0.4V2c0,0.2,0.2,0.4,0.4,0.4l0.5,0c0.1,0,0.2,0,0.3,0.1l7.3,7.3
	c0.1,0.1,0.1,0.2,0.1,0.3v9.5C8.6,19.8,8.8,20,9,20h2c0.2,0,0.4-0.2,0.4-0.4v-9.5c0-0.1,0-0.2,0.1-0.3l7.3-7.3
	c0.1-0.1,0.2-0.1,0.3-0.1l0.5,0C19.8,2.4,20,2.2,20,2z"/>
</svg>
