<svg version="1.1"
	 xmlns="http://www.w3.org/2000/svg" xmlns:xlink="http://www.w3.org/1999/xlink" xmlns:a="http://ns.adobe.com/AdobeSVGViewerExtensions/3.0/"
	 x="0px" y="0px" width="20px" height="20px" viewBox="0 0 20 20" enable-background="new 0 0 20 20" xml:space="preserve">
<defs>
</defs>
<g>
	<path d="M18.5,1.5h-11C7.5,0.7,6.8,0,6,0S4.5,0.7,4.5,1.5h-3C0.7,1.5,0,2.2,0,3s0.7,1.5,1.5,1.5h3C4.5,5.3,5.2,6,6,6
		s1.5-0.7,1.5-1.5h11C19.3,4.5,20,3.8,20,3S19.3,1.5,18.5,1.5z"/>
	<path d="M18.5,8.5h-3C15.5,7.7,14.8,7,14,7h0c-0.8,0-1.5,0.7-1.5,1.5h-11C0.7,8.5,0,9.2,0,10s0.7,1.5,1.5,1.5h11
		c0,0.8,0.7,1.5,1.5,1.5h0c0.8,0,1.5-0.7,1.5-1.5h3c0.8,0,1.5-0.7,1.5-1.5S19.3,8.5,18.5,8.5z"/>
	<path d="M18.5,15.5h-11C7.5,14.7,6.8,14,6,14c-0.8,0-1.5,0.7-1.5,1.5h-3C0.7,15.5,0,16.2,0,17s0.7,1.5,1.5,1.5h3
		C4.5,19.3,5.2,20,6,20c0.8,0,1.5-0.7,1.5-1.5h11c0.8,0,1.5-0.7,1.5-1.5S19.3,15.5,18.5,15.5z"/>
</g>
</svg>
