<svg version="1.1"
	 xmlns="http://www.w3.org/2000/svg" xmlns:xlink="http://www.w3.org/1999/xlink" xmlns:a="http://ns.adobe.com/AdobeSVGViewerExtensions/3.0/"
	 x="0px" y="0px" width="19.5px" height="20px" viewBox="0 0 19.5 20" enable-background="new 0 0 19.5 20" xml:space="preserve">
<defs>
</defs>
<path d="M9.3,0.2L0.2,9.3c-0.4,0.4-0.1,1.1,0.5,1.1l1.7,0v9C2.4,19.7,2.6,20,3,20h3.8c0.4,0,0.6-0.3,0.6-0.6v-6
	c0-0.4,0.3-0.6,0.6-0.6h3.2c0.4,0,0.6,0.3,0.6,0.6v6c0,0.4,0.3,0.6,0.6,0.6h4.1c0.4,0,0.6-0.3,0.6-0.6v-9l1.6,0
	c0.6,0,0.9-0.7,0.5-1.1l-9.1-9.1C9.9-0.1,9.5-0.1,9.3,0.2z"/>
</svg>
