<?xml version="1.0" encoding="utf-8"?>
<!-- Generator: Adobe Illustrator 18.0.0, SVG Export Plug-In . SVG Version: 6.00 Build 0)  -->
<!DOCTYPE svg PUBLIC "-//W3C//DTD SVG 1.1//EN" "http://www.w3.org/Graphics/SVG/1.1/DTD/svg11.dtd">
<svg version="1.1" xmlns="http://www.w3.org/2000/svg" xmlns:xlink="http://www.w3.org/1999/xlink" xmlns:a="http://ns.adobe.com/AdobeSVGViewerExtensions/3.0/"
	x="0px" y="0px" viewBox="0 0 128 127.9" enable-background="new 0 0 128 127.9" xml:space="preserve">
<g>
	<path d="M71.5,40.5L63,48.9c-1.2,1.2-1.2,3.1,0,4.3L79,69.1c1.2,1.2,1.2,3.1,0,4.3l-28.2,28.2c-1.2,1.2-3.1,1.2-4.3,0L26.3,81.4
		c-1.2-1.2-1.2-3.1,0-4.3l1.1-1.1c1.2-1.2,1.2-3.1,0-4.3L19,63.3c-1.2-1.2-3.1-1.2-4.3,0L0.9,77.1c-1.2,1.2-1.2,3.1,0,4.3L46.5,127
		c1.2,1.2,3.1,1.2,4.3,0l53.6-53.6c1.2-1.2,1.2-3.1,0-4.3L75.8,40.5C74.6,39.3,72.7,39.3,71.5,40.5z"/>
	<path d="M101.6,50.8l-1.4,1.4c-1.2,1.2-1.2,3.1,0,4.3l8.4,8.4c1.2,1.2,3.1,1.2,4.3,0l14.1-14.1c1.2-1.2,1.2-3.1,0-4.3L81.5,0.9
		c-1.2-1.2-3.1-1.2-4.3,0L23.3,54.8c-1.2,1.2-1.2,3.1,0,4.3l28.6,28.6c1.2,1.2,3.1,1.2,4.3,0l8.4-8.4c1.2-1.2,1.2-3.1,0-4.3
		L48.7,59.1c-1.2-1.2-1.2-3.1,0-4.3l28.4-28.4c1.2-1.2,3.1-1.2,4.3,0l20.2,20.2C102.8,47.7,102.8,49.6,101.6,50.8z"/>
</g>
</svg>
