<?xml version="1.0" encoding="utf-8"?>
<!-- Generator: Adobe Illustrator 18.0.0, SVG Export Plug-In . SVG Version: 6.00 Build 0)  -->
<!DOCTYPE svg PUBLIC "-//W3C//DTD SVG 1.1//EN" "http://www.w3.org/Graphics/SVG/1.1/DTD/svg11.dtd">
<svg version="1.1" id="Layer_1" xmlns="http://www.w3.org/2000/svg" xmlns:xlink="http://www.w3.org/1999/xlink" x="0px" y="0px"
	 viewBox="0 0 256 256" enable-background="new 0 0 256 256" xml:space="preserve">
<g>
	<path fill="#BBBBBB" d="M218.1,37.4c-13.5-13.5-30.7-24-49.6-30.4c-5-1.7-10.1,2-10.1,7.3v33.2c0,3,1.7,5.7,4.4,6.9
		c8.6,4,16.6,9.3,22.9,15.6c14.8,14.8,24.6,35.2,24.6,57.8c0,45.1-36.3,81.8-81.4,81.8c-22.6,0-42.9-9.1-57.6-23.9
		c-14.8-14.8-23.9-35.2-23.9-57.8c0-22.6,7.8-43,22.6-57.8c6.2-6.2,13.8-11.4,20.7-15.3c2.4-1.4,3.8-3.9,3.8-6.6V14.5
		c0-5.3-5.3-9-10.3-7.2C35.6,24.8,0,72.1,0,127.8c0,35.3,15,67.2,38.1,90.3c23.1,23.1,55.4,37.4,90.7,37.4s67.4-14.3,90.5-37.4
		c23.1-23.1,36.8-55.1,36.8-90.3S241.2,60.6,218.1,37.4z"/>
	<path fill="#BBBBBB" d="M135.9,143.5h-16.6c-4.2,0-7.7-3.4-7.7-7.7V7.7c0-4.2,3.4-7.7,7.7-7.7h16.6c4.2,0,7.7,3.4,7.7,7.7v128.2
		C143.6,140.1,140.2,143.5,135.9,143.5z"/>
</g>
</svg>
