<svg version="1.1"
	 xmlns="http://www.w3.org/2000/svg" xmlns:xlink="http://www.w3.org/1999/xlink" xmlns:a="http://ns.adobe.com/AdobeSVGViewerExtensions/3.0/"
	 x="0px" y="0px" width="20px" height="18.8px" viewBox="0 0 20 18.8" enable-background="new 0 0 20 18.8" xml:space="preserve">
<defs>
</defs>
<path d="M0,7.4L0,7.4c0,4.1,3.5,7.4,7.9,7.4h4.1c1.7,0,3.4,0.5,4.7,1.5l3.3,2.4V7.4C20,3.3,16.5,0,12.1,0L7.9,0C3.5,0,0,3.3,0,7.4z
	 M12.6,7.5c0-0.9,0.7-1.6,1.6-1.6s1.6,0.7,1.6,1.6c0,0.9-0.7,1.6-1.6,1.6S12.6,8.4,12.6,7.5z M8.3,7.5c0-0.9,0.7-1.6,1.6-1.6
	s1.6,0.7,1.6,1.6c0,0.9-0.7,1.6-1.6,1.6S8.3,8.4,8.3,7.5z M3.9,7.5c0-0.9,0.7-1.6,1.6-1.6s1.6,0.7,1.6,1.6c0,0.9-0.7,1.6-1.6,1.6
	S3.9,8.4,3.9,7.5z"/>
</svg>
