<svg version="1.1"
	 xmlns="http://www.w3.org/2000/svg" xmlns:xlink="http://www.w3.org/1999/xlink" xmlns:a="http://ns.adobe.com/AdobeSVGViewerExtensions/3.0/"
	 x="0px" y="0px" width="24px" height="21.6px" viewBox="0 0 24 21.6" enable-background="new 0 0 24 21.6" xml:space="preserve">
<defs>
</defs>
<g>
	<path d="M15,2c3.9,0,7,3.1,7,7v9.2l-2.4-1.4c-0.9-0.5-1.9-0.8-3-0.8H9c-2,0-3.8-0.8-5.1-2.2c-1.3-1.4-2-3.3-1.9-5.3
		C2.3,4.9,5.5,2,9.3,2H15 M15,0H9.3C4.5,0,0.3,3.6,0,8.4C-0.3,13.6,3.8,18,9,18h7.6c0.7,0,1.4,0.2,2,0.5l5.4,3.1V9C24,4,20,0,15,0
		L15,0z"/>
	<g>
		<circle cx="6.3" cy="9.1" r="2"/>
		<circle cx="12.2" cy="9.1" r="2"/>
		<circle cx="18" cy="9.1" r="2"/>
	</g>
</g>
</svg>
