<?xml version="1.0" encoding="utf-8"?>
<!-- Generator: Adobe Illustrator 18.0.0, SVG Export Plug-In . SVG Version: 6.00 Build 0)  -->
<!DOCTYPE svg PUBLIC "-//W3C//DTD SVG 1.1//EN" "http://www.w3.org/Graphics/SVG/1.1/DTD/svg11.dtd">
<svg version="1.1" id="Layer_1" xmlns="http://www.w3.org/2000/svg" xmlns:xlink="http://www.w3.org/1999/xlink" x="0px" y="0px"
	 viewBox="0 0 256 256" enable-background="new 0 0 256 256" xml:space="preserve">
<g>
	<path fill="#424242" d="M128,7.7v48.6c0,4.2-3.4,7.7-7.7,7.7H71.7c-4.2,0-7.7,3.4-7.7,7.7v112.6c0,4.2,3.4,7.7,7.7,7.7h112.6
		c4.2,0,7.7-3.4,7.7-7.7v-48.6c0-4.2,3.4-7.7,7.7-7.7h48.6c4.2,0,7.7,3.4,7.7,7.7v112.6c0,4.2-3.4,7.7-7.7,7.7H7.7
		c-4.2,0-7.7-3.4-7.7-7.7L0,7.7C0,3.4,3.4,0,7.7,0l112.6,0C124.6,0,128,3.4,128,7.7z"/>
	<path fill="#424242" d="M160,39.7v16.6c0,4.2,3.4,7.7,7.7,7.7h80.6c4.2,0,7.7-3.4,7.7-7.7V39.7c0-4.2-3.4-7.7-7.7-7.7h-80.6
		C163.4,32,160,35.4,160,39.7z"/>
	<path fill="#424242" d="M199.7,96h16.6c4.2,0,7.7-3.4,7.7-7.7V7.7c0-4.2-3.4-7.7-7.7-7.7l-16.6,0c-4.2,0-7.7,3.4-7.7,7.7v80.6
		C192,92.6,195.4,96,199.7,96z"/>
</g>
</svg>
