<svg version="1.1"
	 xmlns="http://www.w3.org/2000/svg" xmlns:xlink="http://www.w3.org/1999/xlink" xmlns:a="http://ns.adobe.com/AdobeSVGViewerExtensions/3.0/"
	 x="0px" y="0px" width="20px" height="20px" viewBox="0 0 20 20" enable-background="new 0 0 20 20" xml:space="preserve">
<defs>
</defs>
<g>
	<path d="M10,0.6v3.8C10,4.7,9.7,5,9.4,5H5.6C5.3,5,5,5.3,5,5.6v8.8C5,14.7,5.3,15,5.6,15h8.8c0.3,0,0.6-0.3,0.6-0.6v-3.8
		c0-0.3,0.3-0.6,0.6-0.6h3.8c0.3,0,0.6,0.3,0.6,0.6v8.8c0,0.3-0.3,0.6-0.6,0.6H0.6C0.3,20,0,19.7,0,19.4L0,0.6C0,0.3,0.3,0,0.6,0
		l8.8,0C9.7,0,10,0.3,10,0.6z"/>
	<path d="M12.5,3.1v1.3c0,0.3,0.3,0.6,0.6,0.6h6.3C19.7,5,20,4.7,20,4.4V3.1c0-0.3-0.3-0.6-0.6-0.6h-6.3C12.8,2.5,12.5,2.8,12.5,3.1
		z"/>
	<path d="M15.6,7.5h1.3c0.3,0,0.6-0.3,0.6-0.6V0.6c0-0.3-0.3-0.6-0.6-0.6l-1.3,0C15.3,0,15,0.3,15,0.6v6.3C15,7.2,15.3,7.5,15.6,7.5
		z"/>
</g>
</svg>
