<svg version="1.1"
	 xmlns="http://www.w3.org/2000/svg" xmlns:xlink="http://www.w3.org/1999/xlink" xmlns:a="http://ns.adobe.com/AdobeSVGViewerExtensions/3.0/"
	 x="0px" y="0px" width="24px" height="19.9px" viewBox="0 0 24 19.9" enable-background="new 0 0 24 19.9" xml:space="preserve">
<defs>
</defs>
<g>
	<path d="M16.4,10.7H16c2.3,1.8,3.7,4.5,3.7,7.6v1.6H24v-1.6C24,14.1,20.6,10.7,16.4,10.7z"/>
	<g>
		<path d="M11,4.1c0,1,0.4,2,1,2.7c0.6-0.7,1-1.6,1-2.7s-0.4-2-1-2.7C11.4,2.2,11,3.1,11,4.1z"/>
		<path d="M15.1,0c-0.5,0-1,0.1-1.5,0.3C14.5,1.3,15,2.7,15,4.1c0,1.5-0.5,2.8-1.4,3.8c0.5,0.2,1,0.3,1.5,0.3c2.3,0,4.1-1.9,4.1-4.1
			S17.4,0,15.1,0z"/>
	</g>
	<path d="M10.2,12.7c2.9,0,5.4,2.3,5.6,5.2H2c0.2-2.9,2.6-5.2,5.6-5.2H10.2 M10.2,10.7H7.6c-4.2,0-7.6,3.4-7.6,7.6v1.6h17.7v-1.6
		C17.7,14.1,14.3,10.7,10.2,10.7L10.2,10.7z"/>
	<path d="M8.9,2C10,2,11,3,11,4.1c0,1.2-1,2.1-2.1,2.1s-2.1-1-2.1-2.1C6.7,3,7.7,2,8.9,2 M8.9,0C6.6,0,4.7,1.9,4.7,4.1
		c0,2.3,1.9,4.1,4.1,4.1S13,6.4,13,4.1C13,1.9,11.2,0,8.9,0L8.9,0z"/>
</g>
</svg>
