<svg version="1.1"
	 xmlns="http://www.w3.org/2000/svg" xmlns:xlink="http://www.w3.org/1999/xlink" xmlns:a="http://ns.adobe.com/AdobeSVGViewerExtensions/3.0/"
	 x="0px" y="0px" width="20px" height="16.6px" viewBox="0 0 20 16.6" enable-background="new 0 0 20 16.6" xml:space="preserve">
<defs>
</defs>
<g>
	<g>
		<path d="M20,15.2v1.3h-4v-1.3c0-2.7-1.4-5-3.5-6.4h1.2C17.2,8.9,20,11.8,20,15.2z"/>
	</g>
	<g>
		<path d="M16.1,3.4c0,1.9-1.5,3.4-3.4,3.4c-0.6,0-1.2-0.2-1.7-0.4c0.7-0.8,1.1-1.9,1.1-3s-0.4-2.2-1.1-3C11.4,0.2,12,0,12.6,0
			C14.5,0,16.1,1.5,16.1,3.4z"/>
	</g>
	<path d="M14.8,15.2v1.3H0v-1.3c0-3.5,2.8-6.3,6.3-6.3h2.2C12,8.9,14.8,11.8,14.8,15.2z"/>
	<circle cx="7.4" cy="3.4" r="3.4"/>
</g>
</svg>
