<svg version="1.1"
	 xmlns="http://www.w3.org/2000/svg" xmlns:xlink="http://www.w3.org/1999/xlink" xmlns:a="http://ns.adobe.com/AdobeSVGViewerExtensions/3.0/"
	 x="0px" y="0px" width="21.4px" height="24px" viewBox="0 0 21.4 24" enable-background="new 0 0 21.4 24" xml:space="preserve">
<defs>
</defs>
<g>
	<path d="M12.3,14.9c3.9,0,7.1,3.2,7.1,7.1H2c0-3.9,3.2-7.1,7.1-7.1H12.3 M12.3,12.9H9.1c-5,0-9.1,4.1-9.1,9.1V24h21.4v-1.9
		C21.4,17,17.3,12.9,12.3,12.9L12.3,12.9z"/>
	<path d="M10.7,2c1.6,0,3,1.3,3,3s-1.3,3-3,3s-3-1.3-3-3S9,2,10.7,2 M10.7,0c-2.8,0-5,2.2-5,5c0,2.8,2.2,5,5,5c2.8,0,5-2.2,5-5
		C15.7,2.2,13.5,0,10.7,0L10.7,0z"/>
</g>
</svg>
