<?xml version="1.0" encoding="utf-8"?>
<!-- Generator: Adobe Illustrator 18.0.0, SVG Export Plug-In  -->
<svg version="1.1"  xmlns="http://www.w3.org/2000/svg" xmlns:xlink="http://www.w3.org/1999/xlink" xmlns:a="http://ns.adobe.com/AdobeSVGViewerExtensions/3.0/"
	 x="0px" y="0px" viewBox="0 0 101.5 84.1" enable-background="new 0 0 101.5 84.1" xml:space="preserve">
<g>
	<g>
		<path fill="#FFFFFF" d="M101.5,77.3v6.8H81v-6.4c0-13.6-7.1-25.6-17.8-32.4h6.3C87.2,45.3,101.5,59.7,101.5,77.3z"/>
	</g>
	<g>
		<path fill="#FFFFFF" d="M81.5,17.5C81.5,27.2,73.7,35,64,35c-3.1,0-6.1-0.8-8.6-2.3c3.5-4.1,5.6-9.4,5.6-15.2S58.9,6.4,55.4,2.3
			C57.9,0.8,60.9,0,64,0C73.7,0,81.5,7.8,81.5,17.5z"/>
	</g>
	<path fill="#FFFFFF" d="M75,77.3v6.8H0v-6.8c0-17.7,14.3-32,32-32h11C60.7,45.3,75,59.7,75,77.3z"/>
	<circle fill="#FFFFFF" cx="37.5" cy="17.5" r="17.5"/>
</g>
</svg>
