<svg version="1.1"
	 xmlns="http://www.w3.org/2000/svg" xmlns:xlink="http://www.w3.org/1999/xlink" xmlns:a="http://ns.adobe.com/AdobeSVGViewerExtensions/3.0/"
	 x="0px" y="0px" width="20px" height="21.9px" viewBox="0 0 20 21.9" enable-background="new 0 0 20 21.9" xml:space="preserve">
<defs>
</defs>
<g>
	<path d="M10.2,12L10.2,12c-0.6,0-1-0.4-1-1V1c0-0.6,0.4-1,1-1h0c0.6,0,1,0.4,1,1v10C11.2,11.6,10.8,12,10.2,12z"/>
	<path d="M14.2,4.6L14.2,4.6c0,0.3,0.2,0.6,0.4,0.8c2.4,1.7,3.8,4.6,3.2,7.8c-0.6,3.5-3.5,6.2-7,6.6C6.1,20.4,2,16.6,2,11.9
		c0-2.8,1.5-5.3,3.7-6.7C6,5,6.2,4.7,6.2,4.3v0c0-0.8-0.9-1.3-1.6-0.8C1.7,5.3-0.2,8.6,0,12.4c0.3,5.1,4.5,9.3,9.7,9.5
		c5.7,0.2,10.3-4.4,10.3-10c0-3.3-1.7-6.3-4.2-8.1C15.1,3.3,14.2,3.8,14.2,4.6z"/>
</g>
</svg>
