<svg version="1.1"
	 xmlns="http://www.w3.org/2000/svg" xmlns:xlink="http://www.w3.org/1999/xlink" xmlns:a="http://ns.adobe.com/AdobeSVGViewerExtensions/3.0/"
	 x="0px" y="0px" width="18.6px" height="20px" viewBox="0 0 18.6 20" enable-background="new 0 0 18.6 20" xml:space="preserve">
<defs>
</defs>
<g>
	<path d="M9.9,11H8.6C8.3,11,8,10.7,8,10.4V0.6C8,0.3,8.3,0,8.6,0h1.3c0.3,0,0.6,0.3,0.6,0.6v9.8C10.5,10.7,10.2,11,9.9,11z"/>
	<path d="M15.8,4.4c-0.7-0.7-1.5-1.2-2.4-1.7c-0.4-0.2-0.8,0.1-0.8,0.5v2.6c0,0.2,0.1,0.3,0.2,0.4c0.2,0.1,0.4,0.3,0.6,0.5
		c1.1,1.1,1.8,2.5,1.8,4.1c0,3.2-2.6,5.9-5.9,5.9c-1.6,0-3.1-0.7-4.2-1.7c-1.1-1.1-1.7-2.5-1.7-4.1c0-1.6,0.6-3.1,1.6-4.1
		c0.2-0.2,0.4-0.3,0.6-0.5C5.8,6.1,5.8,6,5.8,5.8V3.2c0-0.4-0.4-0.7-0.8-0.5c-3,1.5-5,4.6-5,8.2c0,2.5,1.1,4.8,2.8,6.5
		C4.5,19,6.8,20,9.4,20s4.9-1,6.6-2.7c1.7-1.7,2.7-3.9,2.7-6.5S17.5,6,15.8,4.4z"/>
</g>
</svg>
