<svg version="1.1"
	 xmlns="http://www.w3.org/2000/svg" xmlns:xlink="http://www.w3.org/1999/xlink" xmlns:a="http://ns.adobe.com/AdobeSVGViewerExtensions/3.0/"
	 x="0px" y="0px" width="18px" height="20px" viewBox="0 0 18 20" enable-background="new 0 0 18 20" xml:space="preserve">
<defs>
</defs>
<g>
	<path d="M9.8,10H8.2C8,10,7.8,9.8,7.8,9.6V0.4C7.8,0.2,8,0,8.2,0h1.6c0.2,0,0.4,0.2,0.4,0.4v9.2C10.2,9.8,10,10,9.8,10z"/>
	<path d="M12.3,3.2v2.3c0,0.1,0.1,0.3,0.2,0.3c1.7,1.2,2.8,3.1,2.7,5.4c-0.1,3.1-2.6,5.7-5.8,5.9c-3.6,0.3-6.6-2.6-6.6-6.2
		c0-2.1,1.1-4,2.7-5.1c0.1-0.1,0.2-0.2,0.2-0.3V3.2c0-0.3-0.3-0.5-0.6-0.4C2,4.4-0.1,7.6,0,11.3C0.2,16.1,4.2,20,9,20c5,0,9-4,9-9
		c0-3.6-2.1-6.7-5.1-8.1C12.6,2.7,12.3,2.9,12.3,3.2z"/>
</g>
</svg>
