<svg version="1.1"
	 xmlns="http://www.w3.org/2000/svg" xmlns:xlink="http://www.w3.org/1999/xlink" xmlns:a="http://ns.adobe.com/AdobeSVGViewerExtensions/3.0/"
	 x="0px" y="0px" width="17.5px" height="20px" viewBox="0 0 17.5 20" enable-background="new 0 0 17.5 20" xml:space="preserve">
<defs>
</defs>
<path d="M8.8,2.5V0.6c0-0.6-0.7-0.8-1.1-0.4L4.2,3.7C4,3.9,4,4.3,4.2,4.6l3.5,3.5c0.4,0.4,1.1,0.1,1.1-0.4V5.8c3.2,0,5.7,2.8,5.4,6
	c-0.3,2.5-2.3,4.5-4.8,4.8c-3.3,0.4-6-2.2-6-5.4c0-0.8,0.2-1.6,0.5-2.2c0.1-0.2,0.1-0.5-0.1-0.7L2.2,6.7c-0.3-0.3-0.8-0.2-1,0.1
	C0.4,8.2,0,9.8,0,11.5c0.1,4.6,3.8,8.3,8.4,8.5c5,0.2,9.1-3.8,9.1-8.8C17.5,6.4,13.6,2.5,8.8,2.5z"/>
</svg>
