<svg version="1.1"
	 xmlns="http://www.w3.org/2000/svg" xmlns:xlink="http://www.w3.org/1999/xlink" xmlns:a="http://ns.adobe.com/AdobeSVGViewerExtensions/3.0/"
	 x="0px" y="0px" width="17.3px" height="20px" viewBox="0 0 17.3 20" enable-background="new 0 0 17.3 20" xml:space="preserve">
<defs>
</defs>
<path d="M8.6,2.7V0.4c0-0.4-0.4-0.5-0.7-0.3L4.2,3.9C4,4,4,4.3,4.2,4.4l3.7,3.7c0.3,0.3,0.7,0.1,0.7-0.3V5.6c3.4,0,6.1,2.9,5.7,6.4
	c-0.3,2.6-2.4,4.8-5.1,5.1c-3.5,0.4-6.4-2.3-6.4-5.7c0-1.1,0.3-2.1,0.8-2.9c0.1-0.2,0.1-0.4-0.1-0.5L2.1,6.5
	C1.9,6.3,1.6,6.3,1.5,6.5C0.5,8-0.1,9.8,0,11.8c0.2,4.4,3.8,8.1,8.3,8.2c4.9,0.2,9-3.7,9-8.6C17.3,6.6,13.4,2.7,8.6,2.7z"/>
</svg>
