<svg version="1.1"
	 xmlns="http://www.w3.org/2000/svg" xmlns:xlink="http://www.w3.org/1999/xlink" xmlns:a="http://ns.adobe.com/AdobeSVGViewerExtensions/3.0/"
	 x="0px" y="0px" width="18.5px" height="18.5px" viewBox="0 0 18.5 18.5" enable-background="new 0 0 18.5 18.5"
	 xml:space="preserve">
<defs>
</defs>
<path d="M12.2,0h-6c-0.5,0-1,0.2-1.4,0.6L0.6,4.8C0.2,5.2,0,5.7,0,6.2v6c0,0.5,0.2,1,0.6,1.4l4.2,4.2c0.4,0.4,0.9,0.6,1.4,0.6h6
	c0.5,0,1-0.2,1.4-0.6l4.2-4.2c0.4-0.4,0.6-0.9,0.6-1.4v-6c0-0.5-0.2-1-0.6-1.4l-4.2-4.2C13.3,0.2,12.8,0,12.2,0z M10.2,15.2h-2v-2h2
	V15.2z M10.2,11.2h-2v-8h2V11.2z"/>
</svg>
