<?xml version="1.0" encoding="utf-8"?>
<!-- Generator: Adobe Illustrator 18.0.0, SVG Export Plug-In . SVG Version: 6.00 Build 0)  -->
<!DOCTYPE svg PUBLIC "-//W3C//DTD SVG 1.1//EN" "http://www.w3.org/Graphics/SVG/1.1/DTD/svg11.dtd">
<svg version="1.1" id="Layer_1" xmlns="http://www.w3.org/2000/svg" xmlns:xlink="http://www.w3.org/1999/xlink" x="0px" y="0px"
	 viewBox="0 0 1024 1024" enable-background="new 0 0 1024 1024" xml:space="preserve">
<path fill="#BBBBBB" d="M1016.4,246.8L778.6,9c-5.8-5.8-13.6-9-21.8-9H30.8C13.8,0,0,13.8,0,30.8v963.9c0,17,13.8,30.8,30.8,30.8
	h963.9c17,0,30.8-13.8,30.8-30.8V268.6C1025.4,260.4,1022.1,252.6,1016.4,246.8z M384.5,769c-70.8,0-128.2-57.4-128.2-128.2
	s57.4-128.2,128.2-128.2s128.2,57.4,128.2,128.2S455.3,769,384.5,769z M644.3,353.8c0,17-13.8,30.8-30.8,30.8H162.4
	c-17,0-30.8-13.8-30.8-30.8V158.9c0-17,13.8-30.8,30.8-30.8h451.2c17,0,30.8,13.8,30.8,30.8V353.8z"/>
</svg>
