<svg version="1.1"
	 xmlns="http://www.w3.org/2000/svg" xmlns:xlink="http://www.w3.org/1999/xlink" xmlns:a="http://ns.adobe.com/AdobeSVGViewerExtensions/3.0/"
	 x="0px" y="0px" width="20px" height="19.9px" viewBox="0 0 20 19.9" enable-background="new 0 0 20 19.9" xml:space="preserve">
<defs>
</defs>
<path d="M14.5,13.3L14.5,13.3l-1-1c1-1.3,1.6-2.9,1.6-4.7c0-4.2-3.5-7.7-7.7-7.6C3.2,0.1-0.3,3.7,0,8.1c0.2,3.8,3.3,6.8,7,7.1
	c2,0.1,3.9-0.5,5.3-1.7l1,1l0,0c-0.2,0.2-0.2,0.5,0,0.6l4.6,4.6c0.2,0.2,0.6,0.2,0.9,0l0.9-0.9c0.2-0.2,0.2-0.6,0-0.9l-4.6-4.6
	C15,13.1,14.7,13.1,14.5,13.3z M7.6,11.5c-2.2,0-3.9-1.8-3.9-3.9s1.8-3.9,3.9-3.9s3.9,1.8,3.9,3.9S9.8,11.5,7.6,11.5z"/>
</svg>
