<svg version="1.1"
	 xmlns="http://www.w3.org/2000/svg" xmlns:xlink="http://www.w3.org/1999/xlink" xmlns:a="http://ns.adobe.com/AdobeSVGViewerExtensions/3.0/"
	 x="0px" y="0px" width="25.8px" height="26px" viewBox="0 0 25.8 26" enable-background="new 0 0 25.8 26" xml:space="preserve">
<defs>
</defs>
<g>
	<path d="M25.3,15.5l-2.5-1.4c0-0.4,0.1-0.7,0.1-1.1s0-0.7-0.1-1.1l2.5-1.4c0.5-0.3,0.6-0.9,0.4-1.4l-3-5.2
		c-0.3-0.5-0.9-0.6-1.4-0.4L18.8,5c-0.6-0.4-1.2-0.8-1.9-1.1V1c0-0.6-0.4-1-1-1h-6c-0.6,0-1,0.4-1,1v2.8C8.2,4.1,7.6,4.5,7,5
		L4.5,3.5C4,3.3,3.4,3.4,3.1,3.9l-3,5.2c-0.3,0.5-0.1,1.1,0.4,1.4L3,11.9c0,0.4-0.1,0.7-0.1,1.1s0,0.7,0.1,1.1l-2.5,1.4
		c-0.5,0.3-0.6,0.9-0.4,1.4l3,5.2c0.3,0.5,0.9,0.6,1.4,0.4L7,21c0.6,0.4,1.2,0.8,1.9,1.1V25c0,0.6,0.4,1,1,1h6c0.6,0,1-0.4,1-1v-2.8
		c0.7-0.3,1.3-0.7,1.9-1.1l2.5,1.4c0.5,0.3,1.1,0.1,1.4-0.4l3-5.2C25.9,16.4,25.8,15.8,25.3,15.5z M21.4,20.2L19.2,19
		c-0.4-0.2-0.8-0.2-1.2,0.1c-0.7,0.6-1.6,1.1-2.5,1.5c-0.4,0.1-0.7,0.5-0.7,0.9V24h-4v-2.5c0-0.4-0.3-0.8-0.7-0.9
		c-0.9-0.3-1.8-0.8-2.5-1.5c-0.3-0.3-0.8-0.3-1.2-0.1l-2.2,1.3l-2-3.5l2.2-1.3c0.4-0.2,0.6-0.6,0.5-1c-0.1-0.5-0.1-1-0.1-1.5
		s0-0.9,0.1-1.5c0.1-0.4-0.1-0.8-0.5-1L2.4,9.2l2-3.5L6.6,7c0.4,0.2,0.8,0.2,1.2-0.1c0.7-0.6,1.6-1.1,2.5-1.5
		c0.4-0.1,0.7-0.5,0.7-0.9V2h4v2.5c0,0.4,0.3,0.8,0.7,0.9c0.9,0.3,1.8,0.8,2.5,1.5c0.3,0.3,0.8,0.3,1.2,0.1l2.2-1.3l2,3.5l-2.2,1.3
		c-0.4,0.2-0.6,0.6-0.5,1c0.1,0.5,0.1,1,0.1,1.5s0,0.9-0.1,1.5c-0.1,0.4,0.1,0.8,0.5,1l2.2,1.3L21.4,20.2z"/>
	<path d="M12.9,9c-2.2,0-4,1.8-4,4s1.8,4,4,4s4-1.8,4-4S15.1,9,12.9,9z M12.9,15c-1.1,0-2-0.9-2-2s0.9-2,2-2s2,0.9,2,2
		S14,15,12.9,15z"/>
</g>
</svg>
