<svg version="1.1"
	 xmlns="http://www.w3.org/2000/svg" xmlns:xlink="http://www.w3.org/1999/xlink" xmlns:a="http://ns.adobe.com/AdobeSVGViewerExtensions/3.0/"
	 x="0px" y="0px" width="20px" height="20px" viewBox="0 0 20 20" enable-background="new 0 0 20 20" xml:space="preserve">
<defs>
</defs>
<path d="M20,11.2V8.8c0-0.3-0.3-0.6-0.6-0.6h-1.7c-0.3,0-0.5-0.2-0.6-0.4c-0.1-0.4-0.3-0.9-0.5-1.3c-0.1-0.2-0.1-0.5,0.1-0.7
	l1.2-1.2c0.2-0.2,0.2-0.6,0-0.9l-1.7-1.7c-0.2-0.2-0.6-0.2-0.8,0l-1.2,1.2c-0.2,0.2-0.5,0.2-0.7,0.1c-0.4-0.2-0.8-0.4-1.2-0.5
	c-0.3-0.1-0.4-0.3-0.4-0.6V0.6c0-0.3-0.3-0.6-0.6-0.6H8.8C8.5,0,8.2,0.3,8.2,0.6v1.7c0,0.3-0.2,0.5-0.4,0.6C7.3,3,6.9,3.2,6.5,3.4
	C6.3,3.5,6,3.5,5.8,3.3L4.6,2.1C4.4,1.9,4,1.9,3.8,2.1L2.1,3.8c-0.2,0.2-0.2,0.6,0,0.9l1.2,1.2C3.4,6,3.5,6.3,3.3,6.5
	C3.1,6.9,3,7.4,2.8,7.8C2.7,8,2.5,8.2,2.3,8.2H0.6C0.3,8.2,0,8.5,0,8.8v2.4c0,0.3,0.3,0.6,0.6,0.6h1.6c0.3,0,0.5,0.2,0.6,0.4
	c0.1,0.5,0.3,0.9,0.5,1.3c0.1,0.2,0.1,0.5-0.1,0.7l-1.2,1.2c-0.2,0.2-0.2,0.6,0,0.8L3.8,18c0.2,0.2,0.6,0.2,0.8,0l1.2-1.2
	c0.2-0.2,0.5-0.2,0.7-0.1c0.4,0.2,0.8,0.4,1.3,0.5c0.3,0.1,0.4,0.3,0.4,0.6v1.6c0,0.3,0.3,0.6,0.6,0.6h2.4c0.3,0,0.6-0.3,0.6-0.6
	v-1.6c0-0.3,0.2-0.5,0.4-0.6c0.5-0.1,0.9-0.3,1.2-0.5c0.2-0.1,0.5-0.1,0.7,0.1l1.2,1.2c0.2,0.2,0.6,0.2,0.8,0l1.7-1.7
	c0.2-0.2,0.2-0.6,0-0.8l-1.2-1.2c-0.2-0.2-0.2-0.5-0.1-0.7c0.2-0.4,0.4-0.8,0.5-1.3c0.1-0.3,0.3-0.4,0.6-0.4h1.7
	C19.7,11.8,20,11.5,20,11.2z M13.9,10c0,2.2-1.8,3.9-3.9,3.9S6.1,12.2,6.1,10v0c0-2.2,1.8-3.9,3.9-3.9S13.9,7.9,13.9,10L13.9,10z"/>
</svg>
