<?xml version="1.0" encoding="utf-8"?>
<!-- Generator: Adobe Illustrator 18.0.0, SVG Export Plug-In . SVG Version: 6.00 Build 0)  -->
<!DOCTYPE svg PUBLIC "-//W3C//DTD SVG 1.1//EN" "http://www.w3.org/Graphics/SVG/1.1/DTD/svg11.dtd">
<svg version="1.1" id="Layer_1" xmlns="http://www.w3.org/2000/svg" xmlns:xlink="http://www.w3.org/1999/xlink" x="0px" y="0px"
	 viewBox="0 0 256 256" enable-background="new 0 0 256 256" xml:space="preserve">
<path fill="#BBBBBB" d="M256,143.4v-30.7c0-4.2-3.4-7.7-7.7-7.7h-21.8c-3.3,0-6.2-2.1-7.3-5.2c-1.7-5.1-4-10.9-6.6-16.2
	c-1.5-3-1-6.6,1.4-9l15-14.9c3-3,3-7.9,0-10.9l-21.7-21.6c-3-3-7.9-3-10.9,0l-14.9,15c-2.4,2.4-6.1,2.9-9.2,1.3
	c-5-2.7-10.1-4.9-15.9-6.6c-3.3-1-5.5-3.9-5.5-7.4V7.7c0-4.2-3.4-7.7-7.7-7.7h-30.7c-4.2,0-7.7,3.4-7.7,7.7v21.8
	c0,3.4-2.3,6.4-5.6,7.4c-5.9,1.7-11.1,4-16.2,6.7c-3,1.6-6.7,1.1-9.1-1.3L59,27.2c-3-3-7.9-3-10.8,0L26.4,49c-3,3-3,7.9,0,10.9
	l15,14.8c2.4,2.4,2.9,6,1.4,9c-2.7,5.3-4.9,11-6.6,16.1c-1.1,3.1-4,5.2-7.3,5.2H7.7c-4.2,0-7.7,3.4-7.7,7.7v30.7
	c0,4.2,3.4,7.7,7.7,7.7h20.9c3.4,0,6.4,2.3,7.4,5.6c1.7,5.9,4,11.3,6.7,16.4c1.6,3,1.1,6.7-1.3,9.1l-15.1,15.2c-3,3-3,7.8,0,10.8
	l21.8,21.8c3,3,7.8,3,10.8,0l15.2-15.1c2.4-2.4,6.1-2.9,9.1-1.3c5.1,2.7,10.3,5,16.2,6.7c3.3,1,5.5,3.9,5.5,7.4v20.6
	c0,4.2,3.4,7.7,7.7,7.7h30.7c4.2,0,7.7-3.4,7.7-7.7v-20.6c0-3.4,2.3-6.4,5.5-7.4c5.8-1.7,10.9-4,15.9-6.7c3-1.6,6.7-1.1,9.2,1.3
	l14.9,15c3,3,7.9,3,10.9,0l21.7-21.7c3-3,3-7.8,0-10.8L214,182.1c-2.4-2.4-2.9-6.1-1.3-9.1c2.7-5.1,5-10.5,6.7-16.4
	c1-3.3,3.9-5.6,7.4-5.6h21.5C252.6,151,256,147.6,256,143.4z M177.7,128.6c0,27.6-22.4,50-50,50s-50-22.4-50-50v0
	c0-27.6,22.4-50,50-50S177.7,101,177.7,128.6L177.7,128.6z"/>
</svg>
