<?xml version="1.0" encoding="utf-8"?>
<!-- Generator: Adobe Illustrator 18.0.0, SVG Export Plug-In . SVG Version: 6.00 Build 0)  -->
<!DOCTYPE svg PUBLIC "-//W3C//DTD SVG 1.1//EN" "http://www.w3.org/Graphics/SVG/1.1/DTD/svg11.dtd">
<svg version="1.1" id="Layer_1" xmlns="http://www.w3.org/2000/svg" xmlns:xlink="http://www.w3.org/1999/xlink" x="0px" y="0px"
	 viewBox="0 0 512 512" enable-background="new 0 0 512 512" xml:space="preserve">
<g id="sw-logo">
	<path id="base" d="M255.9,503L255.9,503C119.3,503,8.5,392.3,8.5,255.6v0C8.5,119,119.3,8.2,255.9,8.2h0
		c136.6,0,247.4,110.8,247.4,247.4v0C503.3,392.3,392.6,503,255.9,503z"/>
	<g id="diff">
		<path fill="#FFE49C" d="M226.3,358.7l-69.2,18.6c-12,3.2-23.8-5.8-23.8-18.2v-207c0-12.4,11.8-21.5,23.8-18.2l69.2,18.6
			c8.2,2.2,14,9.7,14,18.2v169.8C240.3,349,234.6,356.5,226.3,358.7z"/>
		<path fill="#D8ECFF" d="M364.5,358.7l-69.2,18.6c-12,3.2-23.8-5.8-23.8-18.2v-207c0-12.4,11.8-21.5,23.8-18.2l69.2,18.6
			c8.2,2.2,14,9.7,14,18.2v169.8C378.5,349,372.8,356.5,364.5,358.7z"/>
	</g>
</g>
</svg>
