<svg id="ef4qm61ttrmc1" xmlns="http://www.w3.org/2000/svg" xmlns:xlink="http://www.w3.org/1999/xlink" viewBox="0 0 20 20" shape-rendering="geometricPrecision" text-rendering="geometricPrecision"><style><![CDATA[#ef4qm61ttrmc3_to {animation: ef4qm61ttrmc3_to__to 1000ms linear infinite normal forwards}@keyframes ef4qm61ttrmc3_to__to { 0% {transform: translate(4.307603px,10.010972px);animation-timing-function: cubic-bezier(0.420000,0,0.580000,1)} 100% {transform: translate(15.700000px,9.966966px)} }#ef4qm61ttrmc3_ts {animation: ef4qm61ttrmc3_ts__ts 1000ms linear infinite normal forwards}@keyframes ef4qm61ttrmc3_ts__ts { 0% {transform: scale(1,1);animation-timing-function: cubic-bezier(0,0,0.580000,1)} 50% {transform: scale(0.500000,0.500000);animation-timing-function: cubic-bezier(0,0,0.580000,1)} 100% {transform: scale(1,1)} }#ef4qm61ttrmc3 {animation: ef4qm61ttrmc3_f_o 1000ms linear infinite normal forwards}@keyframes ef4qm61ttrmc3_f_o { 0% {fill-opacity: 0.750000;animation-timing-function: cubic-bezier(0,0,0.580000,1)} 50% {fill-opacity: 0.500000;animation-timing-function: cubic-bezier(0,0,0.580000,1)} 100% {fill-opacity: 0.750000} }#ef4qm61ttrmc4_to {animation: ef4qm61ttrmc4_to__to 1000ms linear infinite normal forwards}@keyframes ef4qm61ttrmc4_to__to { 0% {transform: translate(15.700000px,10.050000px);animation-timing-function: cubic-bezier(0.420000,0,0.580000,1)} 100% {transform: translate(4.310000px,9.970000px)} }#ef4qm61ttrmc4_ts {animation: ef4qm61ttrmc4_ts__ts 1000ms linear infinite normal forwards}@keyframes ef4qm61ttrmc4_ts__ts { 0% {transform: scale(1,1);animation-timing-function: cubic-bezier(0,0,0.580000,1)} 50% {transform: scale(1.500000,1.500000);animation-timing-function: cubic-bezier(0,0,0.580000,1)} 100% {transform: scale(1,1)} }#ef4qm61ttrmc4 {animation: ef4qm61ttrmc4_f_o 1000ms linear infinite normal forwards}@keyframes ef4qm61ttrmc4_f_o { 0% {fill-opacity: 0.750000;animation-timing-function: cubic-bezier(0,0,0.580000,1)} 50% {fill-opacity: 1;animation-timing-function: cubic-bezier(0,0,0.580000,1)} 100% {fill-opacity: 0.750000} }]]></style><g id="ef4qm61ttrmc2" transform="matrix(0.49912538576975 0 0 0.49659966100954 5.00874614000000 5.01814651000000)"><g id="ef4qm61ttrmc3_to" transform="translate(4.307603,10.010972)"><g id="ef4qm61ttrmc3_ts" transform="scale(1,1)"><path id="ef4qm61ttrmc3" d="M7.600000,1.600000L1.900000,0.100000C1,-0.200000,0,0.500000,0,1.500000L0,18.400000C0,19.400000,1,20.200000,1.900000,19.900000L7.500000,18.400000C8.200000,18.200000,8.600000,17.600000,8.600000,16.900000L8.600000,3.100000C8.700000,2.400000,8.300000,1.800000,7.600000,1.600000Z" transform="translate(-4.307603,-9.996895)" fill="#000000" fill-opacity="0.75" stroke="none" stroke-width="1"/></g></g><g id="ef4qm61ttrmc4_to" transform="translate(15.700000,10.050000)"><g id="ef4qm61ttrmc4_ts" transform="scale(1,1)"><path id="ef4qm61ttrmc4" d="M18.900000,1.600000L13.300000,0.100000C12.300000,-0.200000,11.400000,0.600000,11.400000,1.600000L11.400000,18.500000C11.400000,19.500000,12.400000,20.300000,13.300000,20L18.900000,18.500000C19.600000,18.300000,20,17.700000,20,17L20,3.100000C20,2.400000,19.500000,1.800000,18.900000,1.600000Z" transform="translate(-15.700000,-10.050000)" fill="#000000" fill-opacity="0.75" stroke="none" stroke-width="1"/></g></g></g></svg>