<svg version="1.1"
	 xmlns="http://www.w3.org/2000/svg" xmlns:xlink="http://www.w3.org/1999/xlink" xmlns:a="http://ns.adobe.com/AdobeSVGViewerExtensions/3.0/"
	 x="0px" y="0px" width="22px" height="22px" viewBox="0 0 22 22" enable-background="new 0 0 22 22" xml:space="preserve">
<defs>
</defs>
<g id="diff_1_">
	<g>
		<path d="M2,2.1l5.6,1.5v14.8L2,19.9V2.1 M1.7,0C0.8,0,0,0.7,0,1.7v18.6c0,1,0.8,1.7,1.7,1.7c0.1,0,0.3,0,0.4-0.1l6.2-1.7
			c0.7-0.2,1.3-0.9,1.3-1.6V3.4c0-0.8-0.5-1.4-1.3-1.6L2.1,0.1C2,0,1.8,0,1.7,0L1.7,0z"/>
	</g>
	<g>
		<path d="M14.4,2.1L20,3.6v14.8l-5.6,1.5V2.1 M14.1,0c-0.9,0-1.7,0.7-1.7,1.7v18.6c0,1,0.8,1.7,1.7,1.7c0.1,0,0.3,0,0.4-0.1
			l6.2-1.7c0.7-0.2,1.3-0.9,1.3-1.6V3.4c0-0.8-0.5-1.4-1.3-1.6l-6.2-1.7C14.4,0,14.2,0,14.1,0L14.1,0z"/>
	</g>
</g>
</svg>
