<svg version="1.1"
	 xmlns="http://www.w3.org/2000/svg" xmlns:xlink="http://www.w3.org/1999/xlink" xmlns:a="http://ns.adobe.com/AdobeSVGViewerExtensions/3.0/"
	 x="0px" y="0px" width="20px" height="20px" viewBox="0 0 20 20" enable-background="new 0 0 20 20" xml:space="preserve">
<defs>
</defs>
<path d="M19.4,0h-7.6c-0.2,0-0.3,0.1-0.4,0.2L0.2,11.3c-0.2,0.2-0.2,0.6,0,0.9l7.6,7.6c0.2,0.2,0.6,0.2,0.9,0L19.8,8.7
	C19.9,8.6,20,8.4,20,8.2V0.6C20,0.3,19.7,0,19.4,0z M14.9,7.2c-1.2,0-2.2-1-2.2-2.2c0-1.2,1-2.2,2.2-2.2s2.2,1,2.2,2.2
	C17.1,6.3,16.1,7.2,14.9,7.2z"/>
</svg>
