<svg version="1.1"
	 xmlns="http://www.w3.org/2000/svg" xmlns:xlink="http://www.w3.org/1999/xlink" xmlns:a="http://ns.adobe.com/AdobeSVGViewerExtensions/3.0/"
	 x="0px" y="0px" width="23.9px" height="23.9px" viewBox="0 0 23.9 23.9" enable-background="new 0 0 23.9 23.9"
	 xml:space="preserve">
<defs>
</defs>
<g>
	<g>
		<path d="M23.7,10.2L10.2,23.7c-0.4,0.4-1,0.4-1.4,0l-8.5-8.5c-0.4-0.4-0.4-1,0-1.4L13.8,0.3C13.9,0.1,14.2,0,14.5,0l8.4,0.1
			c0.5,0,1,0.4,1,1l0.1,8.4C23.9,9.7,23.8,10,23.7,10.2z M9.5,21.5L21.9,9.1l-0.1-7l-7-0.1L2.4,14.5L9.5,21.5z"/>
	</g>
	<path d="M12.7,9.9l-5,5c-0.4,0.4-1,0.4-1.4,0l0,0c-0.4-0.4-0.4-1,0-1.4l5-5c0.4-0.4,1-0.4,1.4,0l0,0C13.1,8.9,13.1,9.5,12.7,9.9z"
		/>
	<path d="M12.6,15.6l-2.1,2.1c-0.4,0.4-1,0.4-1.4,0l0,0c-0.4-0.4-0.4-1,0-1.4l2.1-2.1c0.4-0.4,1-0.4,1.4,0l0,0
		C13,14.6,13,15.3,12.6,15.6z"/>
	<circle cx="14.7" cy="12.1" r="1"/>
	<circle cx="18.2" cy="5.7" r="1"/>
</g>
</svg>
