<?xml version="1.0" encoding="utf-8"?>
<!-- Generator: Adobe Illustrator 18.0.0, SVG Export Plug-In . SVG Version: 6.00 Build 0)  -->
<!DOCTYPE svg PUBLIC "-//W3C//DTD SVG 1.1//EN" "http://www.w3.org/Graphics/SVG/1.1/DTD/svg11.dtd">
<svg version="1.1" id="Layer_1" xmlns="http://www.w3.org/2000/svg" xmlns:xlink="http://www.w3.org/1999/xlink" x="0px" y="0px"
	 viewBox="0 0 1024 1024" enable-background="new 0 0 1024 1024" xml:space="preserve">
<path fill="#BBBBBB" d="M993.3,0H607.5c-8.1,0-15.9,3.2-21.7,9L21.7,573.1c-12,12-12,31.4,0,43.4l385.8,385.8c12,12,31.4,12,43.4,0
	L1015,438.2c5.8-5.8,9-13.6,9-21.7V30.7C1024,13.7,1010.3,0,993.3,0z M768,364.8c-60.1,0-108.8-48.7-108.8-108.8
	c0-60.1,48.7-108.8,108.8-108.8S876.8,195.9,876.8,256C876.8,316.1,828.1,364.8,768,364.8z"/>
</svg>
