<?xml version="1.0" standalone="no"?>
<!DOCTYPE svg PUBLIC "-//W3C//DTD SVG 20010904//EN"
 "http://www.w3.org/TR/2001/REC-SVG-20010904/DTD/svg10.dtd">
<svg version="1.0" xmlns="http://www.w3.org/2000/svg"
 width="20.000000pt" height="20.000000pt" viewBox="0 0 20.000000 20.000000"
 preserveAspectRatio="xMidYMid meet">

<g transform="translate(0.000000,20.000000) scale(0.100000,-0.100000)"
fill="#000000" stroke="none">
<path d="M67 183 c-4 -3 -7 -14 -7 -24 0 -10 -9 -20 -19 -24 -26 -8 -30 -23
-17 -75 l11 -45 64 2 c86 2 91 5 91 53 0 30 -5 42 -17 46 -35 11 -48 21 -61
47 -13 26 -31 34 -45 20z m55 -59 c13 -15 18 -33 16 -55 -3 -30 -7 -35 -41
-43 -45 -12 -54 -5 -63 52 -6 41 -6 42 20 42 23 0 26 3 21 20 -9 28 5 48 18
24 5 -11 18 -29 29 -40z"/>
</g>
</svg>
